<svg width="140" height="55" viewBox="0 0 140 55" fill="none" xmlns="http://www.w3.org/2000/svg">
<path d="M73.7655 16.3635C70.714 13.9159 66.6476 12.3798 61.4975 12.3798C50.6186 12.3798 41.7948 21.7937 41.7948 33.4027C41.7948 45.0117 50.6186 54.4371 61.4975 54.4371C66.6567 54.4371 70.714 52.9033 73.7655 50.4534V53.668H84.3435V13.1237H73.7655V16.3635ZM63.091 44.6972C57.1694 44.6972 52.3752 39.6458 52.3752 33.4051C52.3752 27.1643 57.1694 22.122 63.091 22.122C66.0846 22.122 68.9557 23.3113 71.0725 25.4281C73.1893 27.5449 74.3785 30.4159 74.3785 33.4096C74.3785 36.4033 73.1893 39.2742 71.0725 41.3911C68.9557 43.5079 66.0846 44.6972 63.091 44.6972ZM126.592 53.6772H137.169V21.1439H126.592V53.6772ZM124.525 10.6692C124.525 12.6197 125.3 14.4904 126.679 15.8695C128.058 17.2487 129.929 18.0236 131.879 18.0236C133.83 18.0236 135.7 17.2487 137.08 15.8695C138.459 14.4904 139.234 12.6197 139.234 10.6692C139.234 5.0415 134.66 1.1175 128.04 0.984324C120.349 0.839672 110.645 5.01624 106.301 17.8605V13.1237H95.7298V53.6772H106.303V30.1032C106.303 14.9192 114.966 2.59158 127.976 2.72246C129.183 2.74251 130.38 2.94137 131.528 3.31256C129.64 3.40514 127.859 4.22075 126.556 5.59037C125.253 6.95997 124.526 8.77855 124.527 10.6692H124.525ZM42.8694 13.1237H27.9287L11.3671 28.8335V1.43895H0.789062V53.6772H11.3671V38.9087L27.9287 53.6772H42.7867L21.0244 33.4441L42.8694 13.1237Z" fill="white"/>
</svg>
