<svg width="31" height="35" viewBox="0 0 31 35" fill="none" xmlns="http://www.w3.org/2000/svg">
<path fill-rule="evenodd" clip-rule="evenodd" d="M30.208 5.53998C30.208 6.24105 29.9849 6.95148 29.4205 7.36734C28.68 7.91294 27.7647 8.2354 26.7741 8.2354H24.6235C22.9666 8.2354 21.6235 6.89225 21.6235 5.2354V2.7452C21.6235 2.2309 21.7106 1.73693 21.8708 1.27721C22.1746 0.405872 23.1078 0 24.0306 0H27.208C28.8649 0 30.208 1.34315 30.208 3V5.53998ZM26.7741 8.92167C28.227 8.92167 30.208 9.91687 30.208 11.3697V32C30.208 33.6569 28.8649 35 27.208 35H3.67773C2.02088 35 0.677734 33.6569 0.677734 32V3C0.677734 1.34315 2.02088 0 3.67773 0H18.8339C20.0906 0 20.9367 1.48854 20.9367 2.7452V5.92167C20.9367 7.57853 22.2799 8.92167 23.9367 8.92167H26.7741ZM2.73663 4.80397C2.73663 4.42495 3.0441 4.11769 3.42338 4.11769H17.1584C17.5377 4.11769 17.8452 4.42495 17.8452 4.80397C17.8452 5.18298 17.5377 5.49024 17.1584 5.49024H3.42338C3.0441 5.49024 2.73663 5.18298 2.73663 4.80397ZM2.73663 8.23534C2.73663 7.85632 3.0441 7.54906 3.42338 7.54906H17.1584C17.5377 7.54906 17.8452 7.85632 17.8452 8.23534C17.8452 8.61436 17.5377 8.92161 17.1584 8.92161H3.42338C3.0441 8.92161 2.73663 8.61436 2.73663 8.23534ZM3.42338 10.9804C3.0441 10.9804 2.73663 11.2877 2.73663 11.6667C2.73663 12.0457 3.0441 12.353 3.42338 12.353H27.4597C27.839 12.353 28.1464 12.0457 28.1464 11.6667C28.1464 11.2877 27.839 10.9804 27.4597 10.9804H3.42338ZM2.73663 15.0981C2.73663 14.7191 3.0441 14.4118 3.42338 14.4118H27.4597C27.839 14.4118 28.1464 14.7191 28.1464 15.0981C28.1464 15.4771 27.839 15.7844 27.4597 15.7844H3.42338C3.0441 15.7844 2.73663 15.4771 2.73663 15.0981ZM3.42338 17.8432C3.0441 17.8432 2.73663 18.1504 2.73663 18.5295C2.73663 18.9085 3.0441 19.2157 3.42338 19.2157H27.4597C27.839 19.2157 28.1464 18.9085 28.1464 18.5295C28.1464 18.1504 27.839 17.8432 27.4597 17.8432H3.42338ZM2.73663 21.9608C2.73663 21.5818 3.0441 21.2746 3.42338 21.2746H27.4597C27.839 21.2746 28.1464 21.5818 28.1464 21.9608C28.1464 22.3398 27.839 22.6471 27.4597 22.6471H3.42338C3.0441 22.6471 2.73663 22.3398 2.73663 21.9608ZM3.42338 24.7059C3.0441 24.7059 2.73663 25.0132 2.73663 25.3922C2.73663 25.7712 3.0441 26.0785 3.42338 26.0785H27.4597C27.839 26.0785 28.1464 25.7712 28.1464 25.3922C28.1464 25.0132 27.839 24.7059 27.4597 24.7059H3.42338ZM2.73663 28.8236C2.73663 28.4446 3.0441 28.1373 3.42338 28.1373H27.4597C27.839 28.1373 28.1464 28.4446 28.1464 28.8236C28.1464 29.2026 27.839 29.5098 27.4597 29.5098H3.42338C3.0441 29.5098 2.73663 29.2026 2.73663 28.8236ZM3.42338 31.5687C3.0441 31.5687 2.73663 31.8759 2.73663 32.2549C2.73663 32.634 3.0441 32.9412 3.42338 32.9412H27.4597C27.839 32.9412 28.1464 32.634 28.1464 32.2549C28.1464 31.8759 27.839 31.5687 27.4597 31.5687H3.42338Z" fill="#F8FAFD"/>
</svg>
