<svg width="107" height="113" viewBox="0 0 107 113" fill="none" xmlns="http://www.w3.org/2000/svg">
<path d="M106.277 27.5929C106.277 22.4814 102.148 18.3234 97.0725 18.3234C94.4666 18.3234 92.1116 19.4217 90.4355 21.1804L54.5164 0.295493C53.8384 -0.0984976 53.0038 -0.0984976 52.3258 0.295493L16.4058 21.1804C14.7297 19.4217 12.3755 18.3234 9.7697 18.3234C4.69417 18.3234 0.56543 22.4814 0.56543 27.5929C0.56543 31.9432 3.55733 35.6012 7.57821 36.5943V78.3495C7.57821 79.1375 7.99596 79.866 8.67395 80.2609L44.5819 101.14C44.3439 101.962 44.2138 102.831 44.2138 103.73C44.2138 108.841 48.3425 113 53.4181 113C58.4928 113 62.6215 108.841 62.6215 103.73C62.6215 102.832 62.4922 101.965 62.2543 101.142L98.1682 80.2609C98.8462 79.8669 99.2639 79.1375 99.2639 78.3495V36.5943C103.285 35.6012 106.277 31.9432 106.277 27.5929ZM4.94842 27.5929C4.94842 24.9151 7.1108 22.7374 9.7697 22.7374C12.4277 22.7374 14.5901 24.9151 14.5901 27.5929C14.5901 30.2698 12.4277 32.4484 9.7697 32.4484C7.1108 32.4484 4.94842 30.2698 4.94842 27.5929ZM53.4181 108.586C50.7592 108.586 48.5968 106.408 48.5968 103.73C48.5968 101.054 50.7592 98.875 53.4181 98.875C56.0761 98.875 58.2394 101.054 58.2394 103.73C58.2394 106.408 56.0761 108.586 53.4181 108.586ZM60.0593 97.3223C58.3823 95.561 56.0265 94.4609 53.4181 94.4609C50.8114 94.4609 48.4555 95.5601 46.7794 97.3197L11.9612 77.0753V36.5943C15.9812 35.6012 18.9731 31.9432 18.9731 27.5929C18.9731 26.6928 18.843 25.823 18.6042 24.9988L53.4207 4.75526L88.238 24.9988C87.9992 25.823 87.869 26.692 87.869 27.5929C87.869 31.9432 90.8609 35.6012 94.881 36.5943V77.0753L60.0593 97.3223ZM97.0725 32.4484C94.4144 32.4484 92.2512 30.2698 92.2512 27.5929C92.2512 24.9151 94.4144 22.7374 97.0725 22.7374C99.7314 22.7374 101.894 24.9151 101.894 27.5929C101.894 30.2698 99.7314 32.4484 97.0725 32.4484Z" fill="#F8FFFF"/>
</svg>
