<svg width="109" height="109" viewBox="0 0 109 109" fill="none" xmlns="http://www.w3.org/2000/svg">
<path d="M108.223 55.8569C108.223 44.181 99.9873 34.4043 89.0219 31.999V8.72764C89.0219 3.91522 85.1067 0 80.2943 0H34.9105C30.0981 0 26.1829 3.91522 26.1829 8.72764V27.9284H16.092L15.0395 32.1456L11.3145 29.9096L1.97943 39.2395L4.21545 42.9679L0 44.0205V57.2201L4.21719 58.2727L1.97943 62.0011L11.3128 71.3327L15.0377 69.0967L16.092 73.3121H26.1829V99.4951C26.1829 104.307 30.0981 108.223 34.9105 108.223H80.2943C85.1067 108.223 89.0219 104.307 89.0219 99.4951V79.7147C99.9873 77.3094 108.223 67.5327 108.223 55.8569ZM104.732 55.8569C104.732 59.2589 103.899 62.4637 102.454 65.3072C101.485 62.6417 99.2559 60.5454 96.3758 59.8245L89.0219 57.9847V57.5675C91.1968 55.9284 92.513 53.3503 92.513 50.622V47.131C92.513 44.6925 91.4813 42.3465 89.6817 40.6952C87.8838 39.0492 85.4471 38.2218 83.0103 38.4365C78.5505 38.8223 75.0577 42.8021 75.0577 47.4906V50.6203C75.0577 53.3486 76.3738 55.9267 78.5487 57.5657V57.9829L71.1948 59.8227C68.3147 60.5436 66.0857 62.64 65.1169 65.3054C63.6716 62.4637 62.839 59.2589 62.839 55.8569C62.839 44.3067 72.2352 34.9105 83.7853 34.9105C95.3355 34.9105 104.732 44.3067 104.732 55.8569ZM78.5487 31.999C77.3478 32.2626 76.1853 32.6257 75.0577 33.0585V32.9284C75.0577 30.167 72.8191 27.9284 70.0577 27.9284H45.1471C42.3857 27.9284 40.1471 30.167 40.1471 32.9284V47.3658C40.1471 50.1272 42.3857 52.3658 45.1471 52.3658H59.6272C59.4614 53.5091 59.3479 54.6682 59.3479 55.8569C59.3479 67.5327 67.5833 77.3094 78.5487 79.7147C78.5487 81.9629 76.7263 83.7853 74.4782 83.7853H41.6561C38.8946 83.7853 36.6561 81.5467 36.6561 78.7853V29.4374C36.6561 26.676 38.8947 24.4374 41.6561 24.4374H73.5487C76.3102 24.4374 78.5487 26.676 78.5487 29.4374V31.999ZM60.3778 48.8748H48.6382C45.8768 48.8748 43.6382 46.6362 43.6382 43.8748V36.4195C43.6382 33.6581 45.8768 31.4195 48.6382 31.4195H68.2606C70.0865 31.4195 71.5666 32.8997 71.5666 34.7255C66.2358 37.8203 62.1757 42.8579 60.3778 48.8748ZM34.9105 3.49105H80.2943C83.1814 3.49105 85.5308 5.84053 85.5308 8.72764V13.9642H29.674V8.72764C29.674 5.84053 32.0234 3.49105 34.9105 3.49105ZM26.1829 58.6008C25.0815 59.0861 23.8928 59.3479 22.6919 59.3479C17.8794 59.3479 13.9642 55.4327 13.9642 50.6203C13.9642 45.8079 17.8794 41.8927 22.6919 41.8927C23.8928 41.8927 25.0815 42.1545 26.1829 42.6397V58.6008ZM18.8185 69.8211L17.9685 66.4191L17.6141 65.4852L15.6207 64.6753L11.8539 66.9375L6.37641 61.4583L8.63862 57.6897L7.76585 55.5601L3.49106 54.4936V46.747L7.76062 45.6805L8.63862 43.5509L6.37641 39.7823L11.8539 34.3031L15.6207 36.5653L17.7503 35.6995L18.8185 31.4195H26.1829V38.934C25.0501 38.5936 23.8771 38.4016 22.6919 38.4016C15.9541 38.4016 10.4732 43.8843 10.4732 50.6203C10.4732 57.3563 15.9541 62.839 22.6919 62.839C23.8771 62.839 25.0501 62.647 26.1829 62.3066V69.8211H18.8185ZM80.2943 104.732H34.9105C32.0234 104.732 29.674 102.382 29.674 99.4951V99.2585C29.674 96.4971 31.9125 94.2585 34.674 94.2585H85.5308V99.4951C85.5308 102.382 83.1814 104.732 80.2943 104.732ZM85.5308 85.7674C85.5308 88.5288 83.2923 90.7674 80.5308 90.7674H34.674C31.9125 90.7674 29.674 88.5288 29.674 85.7674V17.4553H85.5308V31.5085C84.9513 31.4666 84.3753 31.4195 83.7853 31.4195C83.1953 31.4195 82.6193 31.4666 82.0398 31.5085V25.9463C82.0398 23.1849 79.8012 20.9463 77.0398 20.9463H38.165C35.4036 20.9463 33.165 23.1849 33.165 25.9463V82.2764C33.165 85.0378 35.4036 87.2764 38.165 87.2764H77.0398C79.8012 87.2764 82.0398 85.0378 82.0398 82.2764V80.2052C82.6193 80.2471 83.1953 80.2943 83.7853 80.2943C84.3753 80.2943 84.9513 80.2471 85.5308 80.2052V85.7674ZM83.7853 76.8032C77.5276 76.8032 71.9175 74.0296 68.0756 69.6657V68.2903C68.0756 65.8832 69.7076 63.7938 72.0414 63.209L79.2012 61.4203C80.8694 61.0036 82.0398 59.5048 82.0398 57.7854V56.6335C82.0398 56.0122 81.7094 55.4378 81.1723 55.1255C79.5297 54.169 78.5487 52.4845 78.5487 50.6203V47.4906C78.5487 44.5947 80.6416 42.1458 83.3123 41.9136C84.8099 41.7932 86.2291 42.2645 87.3235 43.2681C88.4022 44.2578 89.0219 45.6647 89.0219 47.1292V50.6203C89.0219 52.4845 88.0409 54.169 86.3984 55.1255C85.8613 55.4378 85.5308 56.0122 85.5308 56.6335V57.7854C85.5308 59.5048 86.7012 61.0036 88.3694 61.4203L95.5292 63.209C97.863 63.7938 99.4951 65.8832 99.4951 68.2903V69.6657C95.6532 74.0296 90.043 76.8032 83.7853 76.8032Z" fill="#F8FFFF"/>
</svg>
