<svg width="117" height="116" viewBox="0 0 117 116" fill="none" xmlns="http://www.w3.org/2000/svg">
<path d="M0.00606212 93.4812C0.897193 91.2716 2.67946 90.4957 4.90425 90.3047C6.67084 90.1494 8.42819 89.9025 10.1692 89.5651C10.7236 89.4151 11.1963 89.0524 11.4847 88.5558C12.5183 86.625 13.4276 84.6154 14.4066 82.6664C15.1583 81.1509 16.3253 80.278 18.0803 80.284C18.8626 80.2526 19.6354 80.4654 20.2915 80.8928C20.9475 81.3202 21.4544 81.9411 21.7418 82.6695C22.1055 83.4788 22.548 83.8364 23.4452 83.7243C24.198 83.6745 24.953 83.6685 25.7064 83.7061C16.7708 72.6367 13.561 60.179 16.6769 46.4513C19.7928 32.7237 28.1949 22.991 40.9253 16.941C40.1615 15.7285 39.6432 14.5161 40.1494 13.0764C40.701 11.5063 41.7559 10.5333 43.3987 10.2787C45.5204 9.94831 47.6422 9.63914 49.7851 9.36938C50.6944 9.25723 51.2613 8.90562 51.6523 8.02662C52.4979 6.12917 53.4709 4.29235 54.3802 2.42522C55.1228 0.909692 56.2928 0.000374156 58.0175 0.000374156C59.7967 -0.0208433 61.0091 0.861195 61.776 2.42522C62.6853 4.29235 63.6674 6.12917 64.5039 8.02662C64.9192 8.96018 65.5618 9.26026 66.4954 9.37241C68.4777 9.61489 70.4539 9.90486 72.4241 10.2423C75.7855 10.8152 77.1041 13.6007 75.4552 16.553C75.3824 16.6803 75.3309 16.8197 75.249 16.9895C79.862 19.0379 84.0709 21.8958 87.6764 25.4279C94.8661 32.5358 99.1398 41.0894 100.289 51.1737C101.169 58.6525 100.036 66.2307 97.006 73.1247C96.4968 74.2977 95.548 74.7281 94.5599 74.2795C93.6506 73.8673 93.3808 72.9276 93.8355 71.7577C93.9295 71.5091 94.0386 71.2697 94.1386 71.0241C96.0906 66.326 97.1909 61.4217 97.0848 56.3387C96.7332 39.6678 88.9828 27.6952 74.0972 20.2842C72.8606 19.678 71.9755 19.6325 71.1662 20.8328C71.0223 21.0086 70.8596 21.1681 70.6812 21.3087C69.4203 22.5211 69.2142 23.3183 69.8932 24.8823C70.0235 25.1854 70.4782 25.3916 70.8267 25.5461C79.9199 29.5835 86.1972 36.27 89.3586 45.7178C93.9416 59.397 88.8524 74.6281 77.0737 82.9392C76.8131 83.1241 76.5615 83.3242 76.0644 83.7C79.3622 83.7 82.369 83.7 85.3758 83.6788C85.6486 83.6788 85.982 83.3757 86.1821 83.1484C87.4309 81.6813 88.6736 80.2052 89.8739 78.6988C90.7832 77.5743 91.6562 77.2954 92.5594 77.9531C93.4627 78.6109 93.4687 79.6323 92.6655 80.7508C92.3109 81.2418 91.9532 81.7298 91.5834 82.2087C91.2136 82.6877 90.8893 83.0756 90.3922 83.6909C91.5713 83.6909 92.5473 83.7819 93.49 83.6455C93.8294 83.5939 94.1598 83.0393 94.372 82.6482C95.5632 80.4325 97.8668 79.5596 99.8885 80.7569C100.675 81.263 101.322 81.9594 101.768 82.7816C102.801 84.6245 103.699 86.5492 104.584 88.4709C104.712 88.8002 104.934 89.0848 105.222 89.2899C105.51 89.495 105.852 89.6117 106.205 89.6257C108.412 89.8955 110.618 90.1986 112.81 90.5775C113.549 90.6772 114.242 90.9918 114.803 91.4821C115.365 91.9725 115.77 92.6171 115.968 93.3358C116.213 94.019 116.254 94.7584 116.087 95.4646C115.92 96.1708 115.553 96.8137 115.029 97.3155C113.465 98.9099 111.882 100.489 110.237 101.995C109.948 102.234 109.735 102.551 109.622 102.908C109.509 103.265 109.502 103.647 109.6 104.008C109.954 105.938 110.299 107.872 110.637 109.81C111.216 113.144 109.185 115.52 106.132 115.065C105.578 114.962 105.043 114.77 104.55 114.496C102.671 113.532 100.795 112.556 98.9459 111.531C98.6791 111.361 98.3685 111.272 98.052 111.275C97.7355 111.278 97.4269 111.374 97.1636 111.549C95.3147 112.574 93.4293 113.529 91.5622 114.52C89.9982 115.35 88.4372 115.444 86.9792 114.347C85.5213 113.25 85.0666 111.813 85.4637 110.025C85.7668 108.74 85.9062 107.421 86.1396 105.975H84.8939H72.9848C71.6785 105.975 70.8631 105.351 70.8207 104.32C70.7782 103.29 71.5997 102.532 72.9667 102.529C76.9737 102.529 80.9838 102.529 84.9909 102.529H85.8699C84.4028 100.926 82.9358 99.2615 81.4021 97.6641C80.3685 96.5911 79.7532 95.4242 80.0169 93.8995C80.1423 93.0311 80.5522 92.2288 81.1824 91.6183C81.8126 91.0078 82.6276 90.6236 83.4996 90.526C85.7032 90.2229 87.9037 89.8713 90.1133 89.5985C91.5561 89.4227 91.5198 88.1405 92.1442 87.1736H24.1636C24.6243 89.0892 24.8941 89.3348 26.8734 89.6409C28.7738 89.944 30.6743 90.2471 32.5778 90.5199C34.2116 90.7654 35.3967 91.605 35.9483 93.1781C36.5 94.7513 36.109 96.2092 34.936 97.455C33.3507 99.1281 31.7928 100.826 30.2469 102.487C30.3985 102.487 30.7501 102.529 31.0987 102.529H64.2251C66.0437 102.529 66.8985 103.093 66.8803 104.257C66.8621 105.421 66.0104 105.96 64.1917 105.96H31.4078H30.0287C30.2712 107.476 30.4833 108.894 30.7349 110.319C30.9005 111.064 30.8418 111.842 30.5661 112.554C30.2905 113.266 29.8103 113.88 29.1861 114.32C28.6057 114.787 27.8999 115.071 27.1579 115.136C26.4159 115.201 25.6713 115.045 25.0184 114.687C23.0209 113.698 21.0537 112.653 19.1017 111.577C18.4046 111.192 17.8469 111.14 17.1194 111.555C15.319 112.583 13.4549 113.504 11.6211 114.477C10.1055 115.284 8.59002 115.408 7.12602 114.411C5.66202 113.413 5.18614 111.949 5.45894 110.243C5.79033 108.192 6.15103 106.146 6.54102 104.105C6.71076 103.217 6.58043 102.538 5.856 101.895C4.55568 100.741 3.30385 99.5222 2.12174 98.2582C1.3367 97.4156 0.706236 96.4396 0 95.509L0.00606212 93.4812ZM40.0736 83.6909C39.1643 83.0089 38.4762 82.5149 37.8125 81.9844C30.8592 76.4679 26.7915 69.2813 25.4669 60.5215C25.2517 59.106 25.7701 58.2028 26.7885 58.03C27.9282 57.839 28.6071 58.4756 28.8708 59.979C30.7319 71.0696 36.7698 78.8958 47.0784 83.3757C47.597 83.5872 48.152 83.6954 48.7121 83.694C54.6075 83.7152 60.506 83.694 66.4014 83.7243C67.819 83.7687 69.2251 83.456 70.4903 82.815C81.1384 77.3803 87.0247 68.7296 87.5127 56.7782C87.8764 47.9275 84.4817 40.3923 78.0497 34.2847C75.9032 32.2413 73.4314 30.5696 70.7358 29.338C70.7158 29.4795 70.7087 29.6226 70.7146 29.7654C71.0177 31.5598 70.5903 33.0995 69.0414 34.1513C67.4926 35.2031 65.9194 34.9576 64.3494 34.0968C62.5974 33.1329 60.8 32.2478 59.0541 31.2748C58.7734 31.0902 58.4455 30.9902 58.1096 30.987C57.7736 30.9838 57.4438 31.0774 57.1597 31.2566C55.1774 32.3448 53.1799 33.4178 51.1461 34.409C50.6148 34.6827 50.0281 34.8321 49.4306 34.8456C48.833 34.8592 48.2402 34.7366 47.697 34.4872C47.1538 34.2378 46.6745 33.8681 46.2953 33.4061C45.9161 32.9441 45.647 32.4018 45.5083 31.8204C45.3264 31.0778 45.481 30.2534 45.481 29.3531C45.0203 29.5653 44.6445 29.7169 44.2929 29.9078C38.7296 32.8488 34.2599 37.5012 31.5442 43.1778C30.1549 46.0778 29.2341 49.1797 28.8163 52.368C28.6647 53.4531 27.9585 54.029 26.9794 53.9593C26.0004 53.8896 25.4275 53.2045 25.4245 52.1043C25.4136 51.8001 25.4319 51.4956 25.4791 51.195C27.6463 39.0707 34.2691 30.4564 45.5568 25.4764C45.8585 25.368 46.1156 25.1622 46.2873 24.8914C46.9359 23.3759 46.7238 22.4939 45.5022 21.3117C45.2368 21.1012 44.9931 20.8646 44.7748 20.6055C44.0807 19.5992 43.335 19.6962 42.2954 20.1721C26.837 27.095 17.6832 42.7504 19.2593 59.8001C20.0747 68.7993 23.712 76.5134 29.8923 83.0453C30.1378 83.306 30.4773 83.6515 30.7774 83.6515C33.7811 83.7091 36.788 83.6909 40.0736 83.6909ZM8.85372 111.061C8.89009 111.816 9.35385 111.78 9.98127 111.449C11.9151 110.428 13.8732 109.449 15.7858 108.385C16.483 107.964 17.2822 107.741 18.0969 107.741C18.9117 107.741 19.7109 107.964 20.4081 108.385C22.2267 109.379 24.0727 110.331 25.9186 111.274C26.2884 111.422 26.6723 111.533 27.0643 111.604C27.1158 111.177 27.2704 110.734 27.2068 110.325C26.9037 108.346 26.5581 106.384 26.1914 104.408C25.858 102.608 26.1914 101.074 27.6069 99.7798C29.2012 98.3309 30.7076 96.7851 32.2292 95.2575C32.4444 95.0392 32.6869 94.6512 32.6324 94.4178C32.5778 94.1845 32.1353 93.9874 31.8564 93.9571C29.6983 93.6207 27.5341 93.3024 25.3669 93.0236C23.6998 92.8084 22.4904 92.0233 21.7539 90.4775C20.7991 88.4648 19.8049 86.4734 18.7926 84.4911C18.5852 84.2031 18.3359 83.9477 18.053 83.7334C17.8093 83.9507 17.5944 84.1982 17.4134 84.4699C16.4071 86.4553 15.4129 88.4467 14.4521 90.4563C14.1436 91.1508 13.6577 91.7518 13.0431 92.1988C12.4285 92.6457 11.707 92.9229 10.9512 93.0023C8.78704 93.3055 6.62286 93.6086 4.46172 93.945C4.11994 94.0479 3.7929 94.1946 3.48875 94.3815C3.6154 94.7068 3.78679 95.0128 3.99797 95.2908C5.57412 96.87 7.18967 98.4098 8.77794 99.9768C9.32701 100.474 9.7342 101.108 9.95787 101.814C10.1815 102.52 10.2137 103.273 10.051 103.996C9.60845 106.294 9.26291 108.609 8.85069 111.061H8.85372ZM88.9221 110.628C88.8585 111.701 89.1252 111.874 90.0406 111.401C91.9835 110.395 93.9264 109.385 95.8451 108.336C96.5114 107.936 97.2726 107.722 98.0498 107.716C98.8269 107.709 99.5916 107.911 100.264 108.3C102.192 109.334 104.126 110.355 106.072 111.331C106.406 111.446 106.755 111.51 107.108 111.522C107.195 111.176 107.234 110.821 107.227 110.464C106.899 108.343 106.599 106.203 106.154 104.099C105.775 102.299 106.354 100.932 107.621 99.7222C109.209 98.2087 110.777 96.676 112.325 95.1241C112.513 94.9362 112.722 94.5755 112.661 94.3784C112.587 94.2567 112.486 94.153 112.367 94.0749C112.247 93.9968 112.112 93.9462 111.97 93.9268C109.849 93.5964 107.727 93.2509 105.59 93.0175C103.771 92.8175 102.48 92.0082 101.689 90.3502C100.78 88.4426 99.8471 86.5472 98.8913 84.6639C98.6521 84.3093 98.3701 83.9856 98.0517 83.7C97.7738 83.977 97.525 84.2817 97.3091 84.6093C96.3331 86.525 95.3631 88.4436 94.4447 90.3865C93.7112 91.9354 92.5018 92.7326 90.8469 92.9629C88.6827 93.266 86.5185 93.5692 84.3604 93.9117C84.0573 93.9571 83.6208 94.142 83.5632 94.3481C83.5056 94.5543 83.739 94.9725 83.9542 95.1908C85.4455 96.7063 86.9156 98.2218 88.5008 99.6373C89.986 100.98 90.3528 102.559 89.983 104.457C89.5617 106.569 89.2525 108.661 88.9221 110.628ZM48.8485 30.7141C48.797 31.3355 49.1516 31.5688 49.9003 31.1839C51.8766 30.1655 53.8407 29.1379 55.8048 28.068C57.3203 27.2314 58.7904 27.2011 60.3211 28.0437C62.2731 29.1167 64.2615 30.1321 66.2347 31.1506C66.4741 31.2748 66.9288 31.39 67.0288 31.2779C67.1221 31.1533 67.1899 31.0115 67.2284 30.8607C67.2669 30.7099 67.2753 30.5529 67.2531 30.3989C66.9197 28.2347 66.5923 26.0644 66.165 23.9185C65.8225 22.2029 66.2286 20.7995 67.4895 19.5962C69.1061 18.0564 70.7004 16.4934 72.2725 14.9071C72.4921 14.6729 72.6099 14.3611 72.5999 14.0402C72.5999 13.8947 72.1483 13.7159 71.8846 13.6735C69.8356 13.3522 67.7866 13.0097 65.7285 12.7642C63.8068 12.5429 62.3943 11.7275 61.6002 9.89072C60.8061 8.0539 59.8998 6.35954 58.9965 4.61971C58.7265 4.20133 58.4137 3.81226 58.0629 3.45881C57.7401 3.79706 57.4517 4.16665 57.2021 4.56212C56.2413 6.44744 55.3259 8.35397 54.3923 10.2514C54.1172 10.8779 53.686 11.4234 53.14 11.8357C52.5939 12.248 51.9513 12.5134 51.2734 12.6065C49.0001 12.9521 46.7268 13.2885 44.4565 13.6583C44.1238 13.7614 43.8067 13.9093 43.5139 14.0978C43.6444 14.4297 43.8187 14.7427 44.0322 15.0284C45.5821 16.5823 47.1481 18.12 48.7303 19.6416C49.9427 20.8177 50.355 22.1998 50.0337 23.8851C49.6063 26.0948 49.2577 28.3317 48.8485 30.7141Z" fill="#F8FFFF"/>
</svg>
