<svg width="101" height="106" viewBox="0 0 101 106" fill="none" xmlns="http://www.w3.org/2000/svg">
<path d="M2.27741 55.2735L18.4033 66.3936V98.3608C18.4033 102.241 21.5489 105.387 25.4291 105.387H74.6095C78.4897 105.387 81.6353 102.241 81.6353 98.3608V66.3936L97.7594 55.2735C99.1861 54.29 100.038 52.6679 100.038 50.9351C100.038 49.2023 99.1861 47.5802 97.7594 46.5967L81.6353 35.4802V7.02577C81.6353 3.14555 78.4897 0 74.6095 0H25.4291C21.5489 0 18.4033 3.14555 18.4033 7.02577V35.4802L2.27741 46.5984C0.851436 47.582 0 49.2037 0 50.936C0 52.6683 0.851436 54.2899 2.27741 55.2735ZM81.6353 39.7448L95.7659 49.4913C96.2409 49.8192 96.5246 50.3596 96.5246 50.9369C96.5246 51.5141 96.2409 52.0545 95.7659 52.3824L81.6353 62.1272V39.7448ZM63.5281 3.51289L61.2746 5.9157C60.6109 6.62352 59.684 7.02531 58.7137 7.02577H41.3249C40.3542 7.02453 39.4271 6.62292 38.7622 5.9157L36.5105 3.51289H63.5281ZM21.9162 37.3227L22.603 36.8484C23.1883 36.4442 23.472 35.7269 23.3215 35.0317C23.1711 34.3365 22.6162 33.8006 21.9162 33.6745V7.02577C21.9162 5.08566 23.489 3.51289 25.4291 3.51289H31.6943L36.1996 8.31852C37.5299 9.73208 39.3838 10.5351 41.3249 10.5387H58.7137C60.655 10.5364 62.5094 9.73312 63.839 8.31852L68.3443 3.51289H74.6095C76.5496 3.51289 78.1224 5.08566 78.1224 7.02577V33.6745C77.4223 33.8006 76.8675 34.3365 76.717 35.0317C76.5666 35.7269 76.8503 36.4442 77.4356 36.8484L78.1224 37.3227V64.5475L51.0152 83.2449C50.415 83.6585 49.6218 83.6585 49.0216 83.2449L21.9162 64.551V37.3227ZM21.9162 68.8174L47.0333 86.136C48.8372 87.37 51.2137 87.37 53.0175 86.136L78.1224 68.8174V89.5786C78.1224 91.5187 76.5496 93.0915 74.6095 93.0915H25.4291C23.489 93.0915 21.9162 91.5187 21.9162 89.5786V68.8174ZM21.9162 95.6278C22.9795 96.26 24.1921 96.5971 25.4291 96.6044H74.6095C75.8465 96.5971 77.0591 96.26 78.1224 95.6278V98.3608C78.1224 100.301 76.5496 101.874 74.6095 101.874H25.4291C23.489 101.874 21.9162 100.301 21.9162 98.3608V95.6278ZM4.27273 49.4913L18.4033 39.7413V62.1289L4.27097 52.3824C3.79589 52.0545 3.51226 51.5141 3.51226 50.9369C3.51226 50.3596 3.79589 49.8192 4.27097 49.4913H4.27273Z" fill="#F8FFFF"/>
</svg>
